<svg width="30" height="28" viewBox="0 0 30 28" fill="none" xmlns="http://www.w3.org/2000/svg">
<g clip-path="url(#clip0)">
<path d="M4.475 24.7366H22.2988L21.4475 22.1704L23.4838 23.7974L25.35 25.3546L28.75 27.9999V2.94924C28.665 1.39208 27.225 0.0688477 25.44 0.0688477L4.48125 0.072339C2.6975 0.072339 1.25 1.3979 1.25 2.95505V21.8551C1.25 23.4972 2.695 24.7366 4.475 24.7366ZM17.66 6.68268L17.6187 6.69665L17.6338 6.68268H17.66ZM8.12125 8.15954C10.4125 6.60704 12.5363 6.68152 12.5363 6.68152L12.7075 6.83863C9.90375 7.46126 8.6325 8.62738 8.6325 8.62738C8.6325 8.62738 8.9725 8.4726 9.56625 8.23635C13.3425 6.85376 17.4663 6.95385 21.2838 8.70419C21.2838 8.70419 20.01 7.61372 17.3787 6.91544L17.6112 6.70247C17.975 6.70363 19.9 6.76648 21.96 8.16885C21.96 8.16885 24.265 11.8348 24.265 16.3387C24.1888 16.2526 22.835 18.2776 19.3512 18.3474C19.3512 18.3474 18.7612 17.7259 18.3413 17.1836C20.3787 16.6389 21.1413 15.5496 21.1413 15.5496C20.4725 15.9418 19.8625 16.1746 19.3675 16.4073C18.6063 16.7192 17.8438 16.8729 17.0825 17.03C13.4775 17.5746 11.4537 16.6634 9.54125 15.9407L8.8875 15.6311C8.8875 15.6311 9.64875 16.7204 11.605 17.2651C11.0913 17.8109 10.5825 18.4312 10.5825 18.4312C7.1 18.3544 5.83 16.3294 5.83 16.3294C5.83 11.8185 8.12125 8.15954 8.12125 8.15954Z" fill="#050914"/>
<path d="M17.885 14.9316C18.7738 14.9316 19.4975 14.2333 19.4975 13.3721C19.4975 12.5168 18.7775 11.8185 17.885 11.8185V11.822C17 11.822 16.275 12.5179 16.2725 13.3791C16.2725 14.2333 16.9963 14.9316 17.885 14.9316Z" fill="#050914"/>
<path d="M12.1125 14.9316C13.0012 14.9316 13.725 14.2333 13.725 13.3721C13.725 12.5168 13.0062 11.8185 12.1175 11.8185L12.1125 11.822C11.2237 11.822 10.5 12.5179 10.5 13.3791C10.5 14.2333 11.2237 14.9316 12.1125 14.9316Z" fill="#050914"/>
</g>
<defs>
<clipPath id="clip0">
<rect y="0.0688477" width="30" height="27.931" fill="white"/>
</clipPath>
</defs>
</svg>
