<svg width="30" height="28" viewBox="0 0 30 28" fill="none" xmlns="http://www.w3.org/2000/svg">
<g clip-path="url(#clip0)">
<path d="M11.192 25.4928C9.89475 25.4928 8.55946 25.3949 7.21616 25.1989C4.85022 24.8532 2.45521 23.701 1.77749 23.356L0 22.4512L1.92443 21.862C4.02808 21.218 5.30775 20.8185 6.89183 20.1928C5.30569 19.4777 4.08324 18.1912 3.49478 16.5282L3.04709 15.2628L3.41422 15.315C3.06609 14.9884 2.7912 14.6568 2.57811 14.3552C1.82029 13.2836 1.41906 11.9741 1.50443 10.8519L1.58866 9.74745L2.29888 10.0036C1.99927 9.47681 1.78275 8.91424 1.6555 8.3246C1.34536 6.88662 1.60491 5.35893 2.38654 4.02303L3.00521 2.96564L3.83261 3.89091C6.44941 6.81758 9.76383 8.55368 13.6976 9.06191C13.5369 8.03074 13.6573 7.03558 14.0558 6.14355C14.5197 5.10492 15.3451 4.22419 16.4419 3.59641C17.66 2.89937 19.1372 2.56161 20.6013 2.64535C22.1548 2.73422 23.5651 3.27612 24.6853 4.21353C25.2323 4.0812 25.6354 3.93992 26.1801 3.74898C26.5078 3.63412 26.8795 3.50371 27.3446 3.35454L29.0585 2.80475L27.9409 5.7766C28.0146 5.77085 28.0906 5.76594 28.17 5.76275L30.0001 5.68561L28.9184 7.062C28.8564 7.14085 28.8406 7.16322 28.8186 7.19412C28.7314 7.31644 28.6229 7.46859 27.1382 9.31443C26.7665 9.77664 26.5809 10.3786 26.6154 11.0098C26.747 13.4085 26.4309 15.5786 25.6754 17.4599C24.9608 19.2396 23.8535 20.7667 22.3846 21.9986C20.5668 23.5227 18.2489 24.5662 15.495 25.0998C14.1442 25.3615 12.6935 25.4928 11.192 25.4928Z" fill="#050914"/>
</g>
<defs>
<clipPath id="clip0">
<rect y="0.0688477" width="30" height="27.931" fill="white"/>
</clipPath>
</defs>
</svg>
